<?xml version="1.0" standalone="no"?>
<!DOCTYPE svg PUBLIC "-//W3C//DTD SVG 20010904//EN"
 "http://www.w3.org/TR/2001/REC-SVG-20010904/DTD/svg10.dtd">
<svg version="1.0" xmlns="http://www.w3.org/2000/svg"
 width="200.000000pt" height="200.000000pt" viewBox="0 0 200.000000 200.000000"
 preserveAspectRatio="xMidYMid meet">
<metadata>
Created by potrace 1.11, written by Peter Selinger 2001-2013
</metadata>
<g transform="translate(0.000000,200.000000) scale(0.100000,-0.100000)"
fill="#000000" stroke="none">
<path d="M826 1884 c-236 -46 -439 -176 -570 -368 -62 -91 -88 -144 -119 -241
-24 -77 -32 -119 -42 -235 l-5 -55 29 71 c89 226 238 390 446 494 111 56 216
88 315 98 126 11 238 4 264 -17 11 -9 16 -10 12 -3 -6 10 -1 11 21 7 325 -72
570 -284 685 -590 l18 -50 -5 80 c-18 297 -186 557 -460 716 -158 91 -400 129
-589 93z"/>
<path d="M938 1631 c-1 -5 -26 -11 -55 -15 -59 -7 -128 -28 -188 -58 -53 -27
-165 -110 -163 -123 1 -23 -3 -35 -13 -35 -8 0 -8 5 1 18 7 9 -4 -1 -24 -23
-20 -22 -49 -60 -63 -84 -31 -51 -78 -175 -63 -166 5 3 10 2 10 -4 0 -5 -5
-11 -10 -13 -40 -13 -24 -251 27 -381 35 -90 181 -264 211 -252 15 5 87 -34
78 -42 -3 -3 -19 5 -36 17 -17 12 -34 20 -37 17 -17 -17 181 -104 258 -113 30
-3 57 -8 62 -11 4 -2 7 1 7 6 0 6 8 11 18 11 14 0 14 -2 3 -9 -9 -6 9 -8 50
-5 241 17 458 170 545 384 45 111 65 255 38 274 -15 11 -23 81 -11 93 4 3 7
-15 7 -40 0 -26 4 -47 9 -47 30 0 -38 220 -94 305 -54 80 -142 168 -162 160
-9 -3 -28 2 -42 12 -14 10 -35 18 -46 19 -37 2 -72 12 -103 28 -34 17 -56 22
-32 6 20 -13 -80 -13 -114 0 -14 5 -26 7 -26 4 0 -2 10 -8 22 -13 19 -7 15 -9
-25 -15 -53 -8 -64 -26 -14 -26 21 0 28 3 19 9 -9 5 0 10 28 15 23 3 45 4 49
2 4 -3 24 -1 44 4 21 4 39 4 43 -1 3 -5 13 -9 22 -9 9 0 31 -11 47 -25 26 -21
28 -24 10 -25 -15 -1 -12 -4 10 -12 34 -12 97 -67 89 -79 -2 -4 4 -14 14 -21
11 -7 27 -29 37 -48 17 -33 16 -32 -29 14 -25 27 -43 52 -41 57 8 11 -33 31
-47 23 -6 -4 -8 -3 -5 2 3 5 -10 20 -29 33 -18 13 -31 27 -28 32 3 5 -3 9 -13
9 -11 0 -28 7 -39 15 -10 8 -23 14 -29 15 -5 0 -3 -5 5 -11 11 -8 -2 -9 -50
-6 -36 2 -91 1 -122 -3 -32 -3 -58 -2 -58 2 0 4 -5 8 -11 8 -5 0 -8 -3 -6 -7
3 -5 -5 -9 -16 -9 -12 -1 -46 -9 -74 -17 -29 -8 -53 -13 -53 -11 0 8 104 63
112 58 4 -3 8 -1 8 4 0 13 54 35 88 34 15 0 29 4 32 9 6 8 37 10 146 9 29 0
66 -8 89 -20 21 -11 42 -17 48 -13 6 4 7 1 2 -7 -5 -9 -4 -11 4 -6 6 4 24 -2
40 -13 33 -24 49 -27 32 -8 -35 43 -284 126 -319 107 -18 -9 -63 0 -56 11 3 5
1 9 -5 9 -5 0 -11 -4 -13 -9z m150 -31 c13 -8 8 -9 -19 -4 -20 3 -55 0 -79 -6
-24 -6 -53 -13 -64 -14 -12 -1 -46 -15 -77 -29 -31 -15 -58 -27 -62 -27 -3 0
-21 -14 -41 -32 -28 -24 -33 -34 -22 -38 11 -4 9 -8 -10 -17 -22 -10 -24 -10
-14 3 16 18 -2 19 -30 2 -10 -7 -22 -9 -27 -5 -10 11 38 56 65 62 12 2 30 9
39 15 15 9 14 10 -7 5 l-25 -6 25 20 c14 12 36 24 50 27 46 11 52 14 47 29 -4
8 -1 12 6 9 7 -2 31 -1 52 3 63 13 175 14 193 3z m-262 -22 c4 -6 3 -8 -3 -5
-6 4 -30 0 -54 -7 -24 -8 -37 -14 -29 -15 15 -1 -82 -71 -99 -71 -5 0 -13 -4
-16 -10 -4 -6 1 -7 12 -3 22 9 -29 -55 -70 -88 -23 -17 -31 -19 -37 -9 -6 9
-13 3 -25 -21 -10 -19 -30 -50 -44 -69 -14 -19 -18 -29 -9 -22 16 12 16 10 11
-25 -4 -21 -15 -51 -25 -68 -10 -16 -18 -34 -18 -40 1 -5 8 1 16 15 l15 25 -4
-32 c-2 -18 0 -30 3 -28 4 2 0 -25 -9 -60 -10 -42 -18 -58 -22 -47 -4 9 -5
-21 -3 -68 l4 -85 -20 40 c-15 31 -18 52 -13 90 3 28 10 53 16 56 5 4 9 42 9
84 -1 51 3 84 13 97 7 11 11 26 9 32 -7 17 21 78 45 100 11 10 18 23 14 29 -4
6 -1 7 7 2 10 -6 12 -4 7 8 -4 11 -2 14 9 10 20 -7 46 16 39 37 -3 11 1 20 11
24 14 5 15 4 4 -9 -16 -20 1 -19 26 1 10 8 12 12 4 8 -8 -4 0 9 18 28 18 19
51 41 73 48 23 8 35 16 28 20 -6 5 7 14 32 23 55 19 66 20 75 5z m464 -78 c8
-5 26 -20 39 -34 23 -25 24 -26 4 -26 -11 0 -31 8 -44 19 -13 10 -30 16 -38
13 -9 -3 -11 0 -6 7 4 7 -1 19 -11 27 -18 13 -17 14 11 8 17 -4 37 -10 45 -14z
m-99 -36 c19 -15 25 -23 14 -19 -11 5 -42 16 -70 26 l-50 18 36 1 c23 0 47 -9
70 -26z m189 -12 c14 -7 35 -29 48 -48 12 -19 27 -32 32 -29 6 4 7 -1 3 -11
-4 -11 -3 -15 4 -11 13 8 53 -52 58 -86 1 -12 10 -36 19 -53 9 -17 17 -43 18
-58 1 -14 6 -26 11 -26 4 0 4 -7 -1 -17 -5 -9 -7 -35 -4 -57 4 -35 3 -39 -9
-31 -8 6 -6 2 4 -8 21 -18 24 -51 14 -147 -5 -50 -36 -143 -37 -112 0 7 7 29
15 49 18 43 18 46 3 37 -7 -5 -8 -3 -3 6 5 9 4 11 -3 6 -7 -4 -12 -21 -12 -37
0 -25 -44 -109 -57 -109 -7 0 9 75 23 101 11 22 11 29 1 37 -10 8 -13 5 -15
-15 -3 -37 -42 -98 -53 -82 -4 8 -5 16 -1 19 14 9 42 92 35 103 -3 6 -1 7 4 4
14 -9 23 11 36 76 5 20 12 37 16 37 5 0 7 23 5 51 -1 29 2 62 8 75 8 16 8 28
1 36 -6 7 -14 31 -17 52 -5 26 -10 35 -16 27 -5 -9 -14 -4 -32 20 -14 19 -28
42 -31 52 -4 10 -11 16 -15 13 -5 -3 -27 12 -50 33 -23 21 -45 35 -49 32 -5
-3 -5 -2 0 3 4 5 -3 20 -15 33 -21 22 -21 23 -3 16 47 -19 85 -49 96 -76 8
-19 15 -24 19 -16 11 17 56 -28 64 -65 6 -22 10 -26 16 -16 9 14 -29 92 -40
85 -4 -2 -26 15 -51 38 -24 22 -48 41 -54 42 -5 0 -10 5 -10 10 0 6 -4 16 -9
24 -9 14 -8 14 34 -7z m-717 -32 c11 0 5 -6 -72 -75 l-44 -40 24 42 c13 23 34
48 47 54 17 10 19 15 10 22 -9 6 -7 7 5 3 10 -3 24 -6 30 -6z m-113 -94 c-10
-21 -26 -46 -35 -56 -8 -9 -13 -19 -10 -22 3 -3 -6 -34 -19 -69 -24 -62 -25
-63 -26 -27 0 20 4 39 9 42 5 4 8 27 6 52 -2 30 0 42 6 33 7 -11 9 -9 9 7 0
12 7 27 15 34 8 6 13 17 12 23 -1 7 6 11 15 9 9 -1 20 2 23 8 17 27 13 0 -5
-34z m908 -86 c6 -19 10 -24 7 -10 l-4 25 23 -27 c13 -15 27 -24 32 -20 4 4 4
2 0 -5 -4 -7 0 -27 8 -46 8 -20 10 -40 6 -48 -5 -7 -6 -17 -4 -21 3 -4 3 -8 0
-8 -5 0 -35 63 -49 103 -4 9 -11 17 -17 17 -7 0 -7 -7 1 -22 7 -13 14 -39 15
-58 3 -28 -1 -23 -21 30 -13 35 -22 66 -20 69 3 2 5 -2 5 -9 0 -7 2 -11 5 -8
3 3 -10 31 -30 63 -19 33 -35 64 -35 69 0 21 66 -59 78 -94z m-262 61 c56 -34
78 -109 51 -174 -17 -39 -36 -55 -83 -72 -112 -38 -211 80 -158 190 32 69 124
96 190 56z m-787 -87 c-6 -16 -12 -60 -14 -99 -2 -38 -9 -98 -16 -132 -12 -61
-12 -63 16 -114 15 -29 31 -67 35 -83 4 -17 12 -30 18 -29 6 2 21 -12 34 -30
27 -37 50 -97 37 -97 -13 0 -69 80 -70 99 0 11 -2 12 -6 3 -8 -20 -53 72 -53
108 0 16 -5 30 -11 30 -5 0 -8 4 -4 9 3 5 1 13 -5 16 -11 7 -5 178 6 197 4 6
8 30 10 55 2 44 23 108 31 100 2 -2 -2 -17 -8 -33z m1110 -188 c0 -17 -4 -40
-8 -51 -6 -15 -9 -11 -14 20 -4 22 -7 60 -6 85 l0 45 14 -34 c8 -18 15 -47 14
-65z m-1071 -78 c-1 -73 22 -156 57 -210 14 -20 26 -43 27 -49 2 -7 27 -37 56
-67 57 -58 61 -73 15 -48 -38 19 -57 42 -47 57 4 7 3 9 -4 5 -12 -7 -36 30
-27 43 3 5 -2 16 -10 24 -8 9 -15 20 -15 26 0 6 -4 11 -10 11 -5 0 -21 17 -35
39 -22 32 -26 49 -24 107 1 68 7 124 14 124 2 0 3 -28 3 -62z m1045 10 c3 -21
0 -44 -7 -53 -8 -12 -10 -3 -8 40 4 64 8 67 15 13z m-23 -235 c-12 -37 -55
-93 -72 -93 -13 0 11 52 45 96 18 23 34 41 35 39 2 -2 -1 -21 -8 -42z m44 -15
c-9 -18 -26 -46 -38 -63 -11 -16 -21 -33 -21 -37 0 -13 -77 -88 -84 -83 -5 2
-17 -4 -29 -15 -45 -42 -130 -79 -101 -44 13 16 129 78 129 69 0 -14 64 59 67
76 2 11 11 34 20 52 9 18 16 36 15 40 -1 5 2 6 7 2 6 -3 18 6 27 20 23 36 29
24 8 -17z m-1050 -43 c10 -20 22 -33 27 -29 5 3 38 -23 72 -58 34 -34 54 -54
45 -42 -10 11 -18 23 -18 27 0 10 92 -42 112 -63 11 -11 22 -20 25 -20 3 0 -2
9 -11 19 -14 15 -15 21 -4 27 7 4 10 4 6 -1 -9 -9 123 -56 136 -48 5 4 6 2 3
-4 -4 -6 12 -9 43 -7 28 1 48 -2 44 -7 -3 -5 7 -9 21 -9 14 0 24 3 22 8 -3 4
24 5 61 4 43 -3 60 -7 51 -13 -20 -13 -11 -11 49 10 39 13 49 20 36 25 -10 4
-22 2 -28 -4 -5 -5 -28 -10 -50 -9 l-41 0 55 18 c30 9 66 23 80 30 l25 12 -24
-20 c-32 -29 -15 -26 23 3 31 23 90 56 101 56 3 0 3 -6 -1 -12 -4 -7 9 2 29
21 20 19 33 39 30 44 -4 6 -1 7 6 3 7 -5 21 0 32 10 19 17 20 17 13 -2 -14
-38 -43 -70 -84 -93 -24 -13 -40 -19 -36 -12 4 6 2 11 -3 11 -6 0 -11 -5 -11
-10 0 -6 -17 -19 -38 -28 -21 -10 -37 -22 -35 -28 2 -5 -34 -27 -79 -48 -76
-35 -91 -39 -183 -41 l-100 -3 75 15 c41 7 98 14 125 15 32 0 39 2 21 5 -23 4
-26 7 -15 14 10 7 7 8 -11 3 -14 -5 -41 -7 -60 -6 -26 1 -31 -1 -20 -8 30 -19
-87 -18 -134 2 l-30 12 24 7 25 7 -25 2 c-61 6 -70 8 -82 17 -7 6 -22 7 -33 3
-17 -6 -15 -8 15 -15 46 -10 120 -46 120 -59 0 -6 -5 -5 -12 2 -7 7 -24 12
-39 12 -15 0 -34 6 -41 13 -15 13 -33 20 -60 21 -10 0 -15 7 -13 18 2 11 -4
20 -18 24 -12 3 -28 11 -36 17 -7 6 -19 12 -27 13 -21 3 -70 41 -88 69 -9 14
-21 23 -26 20 -6 -4 -7 1 -3 11 4 12 3 15 -5 10 -10 -6 -62 61 -62 79 0 15 19
-8 34 -40z m929 -5 c-3 -11 -18 -34 -33 -50 -15 -16 -25 -32 -21 -36 3 -4 0
-4 -6 0 -7 4 -23 2 -35 -5 -13 -6 4 16 37 49 33 34 61 61 62 62 0 0 -1 -9 -4
-20z m-693 -126 c0 -13 -27 -1 -38 16 -12 20 -12 21 13 4 14 -9 25 -18 25 -20z
m534 -93 c6 -9 -63 -41 -87 -41 -25 1 32 26 66 29 5 1 5 6 2 11 -3 6 -2 10 4
10 5 0 12 -4 15 -9z"/>
<path d="M858 1573 c6 -2 18 -2 25 0 6 3 1 5 -13 5 -14 0 -19 -2 -12 -5z"/>
<path d="M1560 974 c0 -16 -2 -17 -11 -4 -8 11 -9 7 -5 -17 3 -19 -1 -48 -10
-70 -14 -35 -14 -37 0 -23 16 15 41 119 31 128 -3 3 -5 -3 -5 -14z"/>
<path d="M870 451 c0 -6 12 -11 26 -11 14 0 34 -5 45 -10 13 -7 19 -7 19 -1 0
6 -12 13 -27 17 -16 3 -36 8 -45 11 -10 2 -18 0 -18 -6z"/>
<path d="M875 1520 c28 -12 45 -12 45 0 0 6 -15 10 -32 9 -28 0 -30 -2 -13 -9z"/>
<path d="M1866 937 c-9 -46 -67 -166 -115 -234 -134 -194 -338 -328 -575 -379
-85 -19 -267 -21 -353 -5 -114 21 -279 83 -268 101 3 5 0 12 -6 16 -8 4 -9 3
-5 -4 14 -23 -16 -11 -75 28 -82 57 -183 153 -234 225 -41 57 -125 222 -125
244 0 6 -4 11 -8 11 -17 0 21 -203 50 -265 8 -19 8 -28 -3 -42 -12 -16 -12
-17 1 -6 13 10 21 0 53 -60 94 -181 271 -337 468 -411 376 -142 794 -17 1037
309 90 121 154 288 167 434 6 74 2 94 -9 38z"/>
</g>
</svg>
